<svg width="12" height="18" viewBox="0 0 12 18" fill="none" xmlns="http://www.w3.org/2000/svg">
<path d="M0.0411932 18V16.4659L5.80256 10.1591C6.47869 9.42045 7.03551 8.77841 7.47301 8.23295C7.91051 7.68182 8.23438 7.16477 8.4446 6.68182C8.66051 6.19318 8.76847 5.68182 8.76847 5.14773C8.76847 4.53409 8.62074 4.00284 8.32528 3.55398C8.03551 3.10511 7.63778 2.75852 7.1321 2.5142C6.62642 2.26989 6.05824 2.14773 5.42756 2.14773C4.7571 2.14773 4.17188 2.28693 3.67188 2.56534C3.17756 2.83807 2.79403 3.22159 2.52131 3.71591C2.25426 4.21023 2.12074 4.78977 2.12074 5.45454H0.109375C0.109375 4.43182 0.34517 3.53409 0.816761 2.76136C1.28835 1.98864 1.9304 1.38636 2.7429 0.954545C3.56108 0.522727 4.47869 0.306818 5.49574 0.306818C6.51847 0.306818 7.42472 0.522727 8.21449 0.954545C9.00426 1.38636 9.62358 1.96875 10.0724 2.7017C10.5213 3.43466 10.7457 4.25 10.7457 5.14773C10.7457 5.78977 10.6293 6.41761 10.3963 7.03125C10.169 7.6392 9.77131 8.31818 9.20312 9.06818C8.64062 9.8125 7.85938 10.7216 6.85938 11.7955L2.93892 15.9886V16.125H11.0526V18H0.0411932Z" fill="white"/>
</svg>
